# xmcd
#
# Track frame offsets:
#	150
#	12926
#	34491
#	44225
#	58517
#	75664
#	90775
#	102827
#	121867
#	140833
#	150404
#	164764
#	182768
#	196001
#
# Disc length: 2730 seconds
#
# Revision: 1
# Processed by: cddbd v1.5.1PL0 Copyright (c) Steve Scherf et al.
# Submitted via: audiograbber 1.83.01
#
DISCID=b40aa80e
DTITLE=Bar J Wranglers - Beacuse he Lives
DYEAR=2002
DGENRE=Western
TTITLE0=There's One
TTITLE1=Because He Lives
TTITLE2=River Medly
TTITLE3=Come Unto Me
TTITLE4=Go Rest High
TTITLE5=Call Me a Wanderer
TTITLE6=Wispering Hope
TTITLE7=What a Friend We Have in Jesus
TTITLE8=One Day at a Time
TTITLE9=The Lord's Prayer
TTITLE10=In the Garden
TTITLE11=Wayfaring Stranger
TTITLE12=The Place Where I Worship
TTITLE13=Travelin' Shoes
EXTD=Western group from Jackson Hole, Wyoming. This Disk is Gospel Music
EXTT0=
EXTT1=
EXTT2=
EXTT3=
EXTT4=
EXTT5=
EXTT6=
EXTT7=
EXTT8=
EXTT9=
EXTT10=
EXTT11=
EXTT12=
EXTT13=
PLAYORDER=
